<svg xmlns="http://www.w3.org/2000/svg" version="1.0" width="154.000000pt" height="31.000000pt" viewBox="0 0 154.000000 31.000000" preserveAspectRatio="xMidYMid meet">

<g transform="translate(0.000000,31.000000) scale(0.100000,-0.100000)" fill="#bcb8b8" stroke="none">
<path d="M1216 287 c-13 -9 -22 -42 -33 -125 -15 -107 -15 -113 2 -132 21 -23 60 -27 68 -6 4 10 -2 16 -16 18 -20 3 -22 9 -21 59 2 96 8 109 54 109 29 0 40 4 40 15 0 11 -11 15 -36 15 -35 0 -36 1 -32 30 5 33 0 36 -26 17z" fill="#bcb8b8"/>
<path d="M194 248 c-45 -47 -101 -123 -132 -180 -18 -32 -19 -38 -6 -49 8 -7 35 -13 59 -13 57 -1 95 27 117 88 20 53 29 187 13 193 -6 2 -29 -16 -51 -39z" fill="#bcb8b8"/>
<path d="M1044 240 c-49 -11 -102 -57 -115 -100 -31 -101 61 -171 134 -102 29 26 30 26 24 5 -5 -24 9 -41 23 -27 5 5 15 43 24 84 21 111 24 130 17 130 -3 0 -22 4 -41 8 -19 5 -49 5 -66 2z m63 -69 c-7 -52 -26 -90 -59 -115 -65 -47 -115 27 -68 102 23 37 49 50 99 51 33 1 34 1 28 -38z" fill="#bcb8b8"/>
<path d="M1402 239 c-44 -9 -90 -54 -104 -101 -21 -70 26 -128 105 -128 46 0 114 58 123 105 16 87 -40 142 -124 124z m66 -45 c41 -28 24 -107 -29 -138 -37 -22 -73 -15 -95 19 -13 20 -14 30 -4 59 21 65 81 93 128 60z" fill="#bcb8b8"/>
<path d="M46 210 c-37 -33 -51 -72 -40 -114 6 -24 24 -37 24 -17 0 8 53 129 67 154 10 18 -19 4 -51 -23z" fill="#bcb8b8"/>
<path d="M355 225 c-70 -35 -100 -139 -52 -183 12 -11 33 -23 47 -26 34 -8 84 7 88 27 3 14 -1 15 -27 6 -22 -8 -37 -7 -57 3 -42 20 -40 36 3 43 59 10 100 25 113 40 16 19 16 71 0 90 -16 19 -76 19 -115 0z m86 -36 c16 -31 -14 -57 -74 -65 -58 -8 -61 4 -13 52 39 39 70 44 87 13z" fill="#bcb8b8"/>
<path d="M533 232 c-5 -4 -15 -43 -22 -87 -7 -44 -15 -92 -18 -107 -4 -22 -2 -26 13 -24 14 2 23 19 35 66 19 71 45 111 81 124 44 15 62 1 54 -42 -3 -20 -9 -63 -13 -94 -5 -49 -3 -58 10 -58 19 0 34 48 43 136 5 49 3 63 -11 77 -24 24 -90 22 -112 -3 -20 -23 -38 -27 -30 -6 6 16 -14 28 -30 18z" fill="#bcb8b8"/>
<path d="M748 235 c-6 -7 41 -207 51 -218 7 -7 141 200 141 217 0 3 -8 6 -17 6 -12 0 -30 -23 -53 -66 -50 -94 -56 -96 -70 -27 -17 79 -33 107 -52 88z" fill="#bcb8b8"/>
</g>
</svg>